<svg xmlns="http://www.w3.org/2000/svg" xmlns:svg="http://www.w3.org/2000/svg" id="Layer_1" width="432.652" height="142.422" x="0" y="0" enable-background="new 0 0 595.28 841.89" version="1.1" viewBox="0 0 432.652 142.422" xml:space="preserve"><metadata id="metadata3002"/><g id="g3910" transform="translate(-1.157208,-1.30463)"><g id="g2986" transform="translate(-62.158802,-294.02937)"><path style="fill:#3e89d3" id="path2988" d="m 84.249,366.542 c 0,-35.198 28.535,-63.733 63.733,-63.733 11.109,0 21.55,2.848 30.641,7.842 -12.129,-9.583 -27.438,-15.317 -44.097,-15.317 -39.328,0 -71.21,31.88 -71.21,71.209 0,39.329 31.882,71.213 71.21,71.213 16.658,0 31.968,-5.736 44.097,-15.32 -9.095,4.994 -19.531,7.846 -30.641,7.846 -35.198,-10e-4 -63.733,-28.539 -63.733,-63.74 z"/></g><path style="fill:#52af00" id="path2992" d="m 156.72,320.874 c -5.894,0 -11.521,1.129 -16.695,3.161 1.966,-0.273 3.963,-0.427 6.004,-0.427 23.716,0 42.938,19.224 42.938,42.938 0,23.715 -19.223,42.936 -42.938,42.936 -2.041,0 -4.036,-0.153 -6.001,-0.425 5.171,2.033 10.799,3.16 16.692,3.16 25.227,0 45.671,-20.446 45.671,-45.671 0,-25.223 -20.445,-45.672 -45.671,-45.672 z" transform="translate(-62.158802,-294.02987)"/><text id="text2996" x="164.215" y="95.406" style="font-size:64px;font-style:normal;font-variant:normal;font-weight:700;font-stretch:normal;text-align:start;line-height:125%;writing-mode:lr-tb;text-anchor:start;fill:#52af00;font-family:Arial;-inkscape-font-specification:Arial Bold" font-size="66">FOSWIKI</text></g></svg>