<svg xmlns="http://www.w3.org/2000/svg" xmlns:svg="http://www.w3.org/2000/svg" id="svg3124" width="20" height="40" version="1.1" viewBox="0 0 20 40"><metadata id="metadata3134"/><path id="path3126" d="m 10,2.4999995 c -4.1475,0 -7.5,3.3525 -7.5,7.5 C 2.5,14.1475 5.8525,17.5 10,17.5 c 4.1475,0 7.5,-3.3525 7.5,-7.5000005 0,-4.1475 -3.3525,-7.5 -7.5,-7.5 z M 13.75,12.6925 12.6925,13.75 10,11.0575 7.3075,13.75 6.25,12.6925 8.9425,9.9999995 6.25,7.3074995 l 1.0575,-1.0575 2.6925,2.6925 2.6925,-2.6925 1.0575,1.0575 -2.6925,2.6925 L 13.75,12.6925 z" style="fill:#c4c4c2;fill-opacity:.90588235"/><path id="path3126-7" d="m 10,22.500099 c -4.1475,0 -7.5,3.3525 -7.5,7.500001 0,4.1475 3.3525001,7.5 7.5,7.5 4.1475,0 7.5,-3.3525 7.5,-7.5 0,-4.1475 -3.3525,-7.5 -7.5,-7.5 z m 3.75,10.1925 L 12.6925,33.7501 10,31.0576 7.3075001,33.7501 6.2500001,32.692599 8.9425,30.0001 6.2500001,27.3076 7.3075001,26.250099 10,28.942599 l 2.6925,-2.6925 1.0575,1.057501 -2.6925,2.6925 2.6925,2.6925 z" style="fill:#d27777;fill-opacity:1"/></svg>