<svg xmlns="http://www.w3.org/2000/svg" xmlns:svg="http://www.w3.org/2000/svg" id="svg3117" width="20" height="60" version="1.1" viewBox="0 0 20 60"><metadata id="metadata3129"/><path id="path3121" d="M 10.000004,36.073785 16.180001,40.000101 14.540002,32.6001 20.000001,27.621152 12.810002,26.979047 10.000004,20.0001 7.1900006,26.979047 0,27.621152 5.4600005,32.6001 3.8200004,40.000101 z" style="fill:#d27777;fill-opacity:1"/><path style="fill:#c4c4c2;fill-opacity:.90588235" id="path3183" d="m 20.000001,7.6210519 -7.19,-0.6526315 L 10,-1.5e-6 7.1900009,6.9789466 0,7.6210519 5.4600007,12.599999 3.8200006,20 10,16.073684 16.180001,20 14.55,12.599999 20.000001,7.6210519 z M 10,14.105264 6.2400008,16.494737 7.2400009,11.989473 3.9200006,8.9578939 8.3,8.557894 10,4.3157878 l 1.709999,4.2526314 4.38,0.4000011 -3.319999,3.0315787 1,4.505263 L 10,14.105263 z"/><path id="path3121-9" d="m 10.000002,56.073885 6.179999,3.926314 -1.639998,-7.399999 5.459998,-4.978947 -7.19,-0.642106 -2.81,-6.978946 L 7.1900007,46.979147 0,47.621253 l 5.4600006,4.978949 -1.6400001,7.4 z" style="fill:#f1a700;fill-opacity:1"/></svg>